<svg viewBox="0 0 119.92 33.93" xmlns="http://www.w3.org/2000/svg">
    <path
        d="m68.43 17.54 2.01 5.3h-1.06l-.43-1.24h-2.14l-.42 1.24h-1.05l2.01-5.3h1.08Zm-1.34 3.24h1.58l-.79-2.33-.79 2.33ZM75.01 18.74c.28 0 .52.07.73.22.21.15.36.36.47.64.13-.27.31-.49.57-.64s.54-.23.87-.23c.46 0 .83.15 1.08.45.26.3.39.72.39 1.27v2.38h-.93V20.5c0-.32-.07-.55-.2-.72-.13-.16-.33-.24-.6-.24-.28 0-.51.09-.67.28-.16.19-.25.45-.25.78v2.22h-.93v-2.33c0-.32-.07-.55-.2-.72-.13-.16-.33-.24-.59-.24-.29 0-.52.1-.68.29-.16.19-.24.46-.24.81v2.18h-.93v-3.99h.85v.6c.13-.23.3-.41.51-.53s.46-.18.73-.18l.02.03ZM83.67 22.51c-.17.14-.39.25-.66.33s-.56.11-.89.11c-.67 0-1.2-.19-1.58-.56-.39-.37-.58-.89-.58-1.54 0-.42.09-.79.26-1.11.17-.32.41-.56.71-.74.3-.17.63-.26 1.01-.26.54 0 .97.17 1.29.52.32.35.47.82.47 1.41v.44h-2.81c.04.34.16.61.38.79.22.19.5.28.86.28.22 0 .45-.03.67-.1.23-.06.41-.15.56-.25l.29.67.02.01Zm-1.75-3.02c-.27 0-.5.08-.68.25s-.29.4-.33.7h1.92c-.02-.3-.1-.53-.26-.7s-.37-.25-.65-.25ZM86.67 18.74c.28 0 .52.07.73.22.21.15.36.36.47.64.13-.27.31-.49.57-.64s.54-.23.87-.23c.46 0 .83.15 1.08.45.26.3.39.72.39 1.27v2.38h-.93V20.5c0-.32-.07-.55-.2-.72-.13-.16-.33-.24-.6-.24-.28 0-.51.09-.67.28-.16.19-.25.45-.25.78v2.22h-.93v-2.33c0-.32-.07-.55-.2-.72-.13-.16-.33-.24-.59-.24-.29 0-.52.1-.68.29-.16.19-.24.46-.24.81v2.18h-.93v-3.99h.85v.6c.13-.23.3-.41.51-.53s.46-.18.73-.18l.02.03ZM91.83 22.84v-5.69h.93v2.31c.14-.23.33-.4.57-.53.23-.13.49-.19.78-.19.36 0 .69.09.97.28s.5.44.65.75c.15.32.23.68.23 1.08s-.08.79-.25 1.1c-.16.32-.38.56-.66.74-.28.17-.59.26-.94.26-.29 0-.55-.06-.79-.19s-.43-.3-.58-.53v.61h-.91Zm2.05-.7c.33 0 .6-.12.81-.36s.32-.55.32-.92-.11-.68-.32-.93-.48-.37-.81-.37c-.34 0-.62.12-.84.36-.22.24-.33.55-.33.93s.11.68.33.92c.22.24.5.36.84.36v.01ZM100.33 22.51c-.17.14-.39.25-.66.33s-.56.11-.89.11c-.67 0-1.2-.19-1.58-.56-.39-.37-.58-.89-.58-1.54 0-.42.09-.79.26-1.11.17-.32.41-.56.71-.74.3-.17.63-.26 1.01-.26.54 0 .97.17 1.29.52.32.35.47.82.47 1.41v.44h-2.81c.04.34.16.61.38.79.22.19.5.28.86.28.22 0 .45-.03.67-.1.23-.06.41-.15.56-.25l.29.67.02.01Zm-1.75-3.02c-.27 0-.5.08-.68.25s-.29.4-.33.7h1.92c-.02-.3-.1-.53-.26-.7s-.37-.25-.65-.25ZM103.67 19.7c-.08-.03-.22-.04-.41-.04-.35 0-.62.1-.81.31s-.29.5-.29.87v2h-.93v-3.99h.85v.74c.12-.25.28-.45.49-.58a1.278 1.278 0 0 1 1.09-.15v.85l.01-.01ZM108.22 22.95c-.42 0-.79-.09-1.11-.28-.32-.18-.57-.44-.74-.75s-.26-.67-.26-1.07c0-.42.09-.79.28-1.11s.44-.57.76-.74c.32-.17.68-.26 1.07-.26s.78.09 1.1.28.57.44.74.76.26.68.26 1.07-.09.78-.28 1.1-.44.57-.76.74c-.32.17-.67.26-1.06.26Zm0-.81c.34 0 .62-.12.83-.36.22-.24.33-.55.33-.92s-.11-.68-.33-.93-.5-.37-.83-.37-.62.12-.83.37c-.22.25-.33.56-.33.93s.11.68.33.92c.22.24.5.36.83.36ZM111.54 22.84v-3.22h-.67v-.77h.67v-.13c0-.54.13-.95.4-1.24.27-.29.65-.44 1.14-.44.13 0 .26.01.39.04s.25.07.34.12l-.18.71a.877.877 0 0 0-.4-.1c-.26 0-.45.07-.58.21s-.19.36-.19.67v.15h1.17v.77h-1.17v3.22h-.93l.01.01ZM67.54 32.44c-.44 0-.78-.12-1-.37-.23-.25-.34-.61-.34-1.09v-1.87h-.67v-.77h.42c.12 0 .2-.02.25-.07s.07-.13.07-.25v-.68h.85v1h1.2v.77h-1.2v1.76c0 .27.05.47.15.6s.25.19.47.19.42-.05.62-.14l.16.7c-.11.07-.25.13-.42.17-.17.04-.36.06-.55.06l-.01-.01ZM71.98 32.33V30c0-.32-.07-.55-.21-.72s-.35-.24-.62-.24c-.3 0-.53.1-.7.29-.17.2-.25.47-.25.82v2.17h-.93v-5.69h.93v2.23c.13-.21.29-.36.5-.47s.44-.17.7-.17c.47 0 .84.15 1.11.46s.4.72.4 1.26v2.38h-.93v.01ZM77.46 32c-.17.14-.39.25-.66.33s-.56.11-.89.11c-.67 0-1.2-.19-1.58-.56-.39-.37-.58-.89-.58-1.54 0-.42.09-.79.26-1.11.17-.32.41-.56.71-.74.3-.17.63-.26 1.01-.26.54 0 .97.17 1.29.52.32.35.47.82.47 1.41v.44h-2.81c.04.34.16.61.38.79.22.19.5.28.86.28.22 0 .45-.03.67-.1.23-.06.41-.15.56-.25l.29.67.02.01Zm-1.75-3.02c-.27 0-.5.08-.68.25s-.29.4-.33.7h1.92c-.02-.3-.1-.53-.26-.7s-.37-.25-.65-.25ZM82.84 27.03l2.01 5.3h-1.06l-.43-1.24h-2.14l-.42 1.24h-1.05l2.01-5.3h1.08Zm-1.34 3.24h1.58l-.79-2.33-.79 2.33ZM85.54 27.03h1.94c.54 0 .97.12 1.28.36s.47.57.47.98c0 .24-.05.45-.16.63s-.26.33-.45.43c.34.11.6.27.78.49.17.22.26.5.26.84 0 .51-.18.9-.53 1.16s-.87.4-1.55.4h-2.04v-5.3.01Zm1.91 2.12c.27 0 .48-.06.63-.17s.22-.28.22-.5-.08-.37-.23-.49-.37-.17-.65-.17h-.92v1.33h.95Zm.11 2.38c.38 0 .66-.06.85-.19.18-.13.28-.33.28-.59s-.1-.47-.28-.61c-.19-.14-.47-.21-.83-.21h-1.06v1.6h1.05-.01ZM90.63 27.03h1.94c.54 0 .97.12 1.28.36s.47.57.47.98c0 .24-.05.45-.16.63s-.26.33-.45.43c.34.11.6.27.78.49.17.22.26.5.26.84 0 .51-.18.9-.53 1.16s-.87.4-1.55.4h-2.04v-5.3.01Zm1.91 2.12c.27 0 .48-.06.63-.17s.22-.28.22-.5-.08-.37-.23-.49-.37-.17-.65-.17h-.92v1.33h.95Zm.11 2.38c.38 0 .66-.06.85-.19.18-.13.28-.33.28-.59s-.1-.47-.28-.61c-.19-.14-.47-.21-.83-.21h-1.06v1.6h1.05-.01ZM101.21 30.33h-1.1v-.85h1.47c.22 0 .36.04.44.12.08.08.12.22.12.43v1.88c-.51.36-1.15.54-1.94.54-.44 0-.83-.07-1.19-.21s-.66-.33-.9-.58-.43-.54-.55-.87c-.13-.33-.19-.7-.19-1.1 0-.56.12-1.06.35-1.48.23-.42.56-.74.98-.97.42-.22.89-.34 1.42-.34.38 0 .74.06 1.08.19.33.13.6.3.81.52l-.53.68c-.17-.15-.37-.27-.61-.36-.23-.09-.48-.13-.72-.13-.54 0-.97.17-1.29.5s-.48.79-.48 1.36.16 1.05.49 1.38.78.5 1.36.5c.39 0 .71-.06.97-.17v-1.06l.01.02ZM105.57 29.19c-.08-.03-.22-.04-.41-.04-.35 0-.62.1-.81.31-.19.21-.29.5-.29.87v2h-.93v-3.99h.85v.74c.12-.25.28-.45.49-.58a1.278 1.278 0 0 1 1.09-.15v.85l.01-.01ZM108.15 32.44c-.42 0-.79-.09-1.11-.28-.32-.18-.57-.44-.74-.75s-.26-.67-.26-1.07c0-.42.09-.79.28-1.11s.44-.57.76-.74c.32-.17.68-.26 1.07-.26s.78.09 1.1.28.57.44.74.76.26.68.26 1.07-.09.78-.28 1.1-.44.57-.76.74c-.32.17-.67.26-1.06.26Zm0-.81c.34 0 .62-.12.83-.36.22-.24.33-.55.33-.92s-.11-.68-.33-.93-.5-.37-.83-.37-.62.12-.83.37c-.22.25-.33.56-.33.93s.11.68.33.92c.22.24.5.36.83.36ZM112.6 32.44c-.47 0-.84-.15-1.1-.45-.27-.3-.4-.72-.4-1.26v-2.39h.92v2.33c0 .31.07.55.21.71s.34.25.61.25c.3 0 .53-.1.7-.29s.25-.47.25-.83v-2.17h.93v3.99h-.85v-.57c-.13.22-.31.39-.53.51s-.46.17-.74.17ZM115.8 33.93v-5.59h.9v.61c.15-.23.34-.4.58-.53.24-.13.5-.19.79-.19.36 0 .69.09.97.28s.5.44.65.75c.15.32.23.68.23 1.08s-.08.79-.25 1.1c-.16.32-.38.56-.66.74-.28.17-.59.26-.94.26-.29 0-.55-.06-.78-.18s-.42-.29-.56-.52v2.18h-.93v.01Zm2.05-2.3c.33 0 .6-.12.81-.36.21-.24.32-.55.32-.92s-.11-.68-.32-.93-.48-.37-.81-.37-.62.12-.84.36-.33.55-.33.93.11.68.33.92c.22.24.5.36.84.36v.01Z"
        fill="#dddddd"></path>
    <path fill="#f80" d="M0 27.1h61.23v5.43H0z"></path>
    <path
        d="m36.37 16.76-2.11-2.62-1.58 1.95-3.97-5.17 5.51.02V7.32H23.41v3.56L25.38 13c-.18.1-1.36.62-1.75.88-1.08.72-2.02 1.72-2.39 2.99-.68 2.32.51 4.88 2.64 5.96 2.09 1.06 4.89.84 6.99-.1.43-.2.84-.46 1.22-.73.04-.03.17-.12.31-.24l1.48 1.76h4.81l-3.91-4.79 1.58-1.94.01-.03Zm-7.85 3.23c-.79.26-1.78.15-2.48-.33-.17-.12-.32-.27-.45-.43-.46-.6-.56-1.44-.11-2.1.47-.69 1.27-1.15 2.01-1.5l.48.6 2.22 2.83c-.78.51-1.57.89-1.69.93h.02ZM53.88 14.59s5.47-.87 5.47-7.1c0-4.38-2.76-7.49-8.33-7.49H39.63v23.51h5.45v-8.9h2.48l7.12 8.9h6.34l-7.14-8.92Zm-3.52-3.8h-5.33V4.48h5.33c2.26 0 3.67.97 3.67 3.16 0 2-1.32 3.16-3.67 3.16v-.01ZM15.97 11.33c2.01-.94 3.11-2.75 3.11-4.96C19.08 2.51 16.2 0 11.35 0H0v23.51h11.75c5.46 0 8.07-3.04 8.07-6.58 0-2.62-1.34-4.7-3.85-5.61v.01ZM5.49 3.84h4.96c1.98 0 3.15.94 3.15 2.61s-1.17 2.73-3.42 2.73h-4.7V3.84h.01Zm5.26 16.09H5.49v-7.17h5.36c2.25 0 3.6 1.23 3.6 3.59 0 2.2-1.28 3.59-3.7 3.59v-.01Z"
        fill="#dddddd"></path>
</svg>